<svg width="16" height="16" viewBox="0 0 16 16" fill="none" xmlns="http://www.w3.org/2000/svg">
<path d="M12.6663 1.33334H3.33301C2.80257 1.33334 2.29387 1.54405 1.91879 1.91912C1.54372 2.2942 1.33301 2.8029 1.33301 3.33334V4.11334C1.33291 4.38863 1.38965 4.66098 1.49967 4.91334V4.95334C1.59386 5.16732 1.72727 5.36178 1.89301 5.52667L5.99967 9.60667V14C5.99945 14.1133 6.0281 14.2248 6.08292 14.3239C6.13775 14.4231 6.21693 14.5066 6.31301 14.5667C6.4191 14.6324 6.54152 14.6671 6.66634 14.6667C6.7707 14.666 6.87346 14.6409 6.96634 14.5933L9.63301 13.26C9.74295 13.2046 9.83541 13.1198 9.90013 13.0151C9.96485 12.9104 9.9993 12.7898 9.99967 12.6667V9.60667L14.0797 5.52667C14.2454 5.36178 14.3788 5.16732 14.473 4.95334V4.91334C14.5922 4.66296 14.6581 4.39052 14.6663 4.11334V3.33334C14.6663 2.8029 14.4556 2.2942 14.0806 1.91912C13.7055 1.54405 13.1968 1.33334 12.6663 1.33334ZM8.85967 8.86C8.79789 8.9223 8.749 8.99617 8.71583 9.0774C8.68265 9.15862 8.66583 9.2456 8.66634 9.33334V12.2533L7.33301 12.92V9.33334C7.33352 9.2456 7.3167 9.15862 7.28352 9.0774C7.25035 8.99617 7.20146 8.9223 7.13967 8.86L3.60634 5.33334H12.393L8.85967 8.86ZM13.333 4H2.66634V3.33334C2.66634 3.15652 2.73658 2.98696 2.8616 2.86193C2.98663 2.73691 3.1562 2.66667 3.33301 2.66667H12.6663C12.8432 2.66667 13.0127 2.73691 13.1377 2.86193C13.2628 2.98696 13.333 3.15652 13.333 3.33334V4Z" fill="#3365FC"/>
</svg>

